<svg width="80" height="80" viewBox="0 0 80 80" fill="none" xmlns="http://www.w3.org/2000/svg">
<circle cx="34.3547" cy="41.3489" r="16.3489" fill="white"/>
<path fill-rule="evenodd" clip-rule="evenodd" d="M49.915 41.2338C49.915 49.7108 43.0431 56.5827 34.5662 56.5827C26.0892 56.5827 19.2173 49.7108 19.2173 41.2338C19.2173 32.7569 26.0892 25.885 34.5662 25.885C43.0431 25.885 49.915 32.7569 49.915 41.2338ZM46.7928 52.0874C43.798 55.4586 39.4301 57.5827 34.5662 57.5827C25.5369 57.5827 18.2173 50.2631 18.2173 41.2338C18.2173 32.2046 25.5369 24.885 34.5662 24.885C43.5954 24.885 50.915 32.2046 50.915 41.2338C50.915 45.0395 49.6147 48.5415 47.4341 51.3197L61.8248 63.9989C62.032 64.1814 62.052 64.4974 61.8694 64.7046C61.6869 64.9118 61.3709 64.9318 61.1637 64.7492L46.7928 52.0874Z" fill="#15154C"/>
<path fill-rule="evenodd" clip-rule="evenodd" d="M58.129 29.4072C58.2719 29.9407 57.9553 30.489 57.4218 30.6319L53.2068 31.761C52.6733 31.9039 52.125 31.5872 51.9821 31.0537C51.8392 30.5203 52.1558 29.972 52.6893 29.8291L56.9044 28.7C57.4378 28.5571 57.9861 28.8738 58.129 29.4072Z" fill="#4649FF"/>
<path fill-rule="evenodd" clip-rule="evenodd" d="M49.2092 18.084C49.6875 18.3602 49.8513 18.9718 49.5751 19.4501L47.393 23.2289C47.1168 23.7072 46.5052 23.871 46.0269 23.5948C45.5486 23.3187 45.3848 22.7071 45.661 22.2288L47.8431 18.45C48.1193 17.9717 48.7309 17.8079 49.2092 18.084Z" fill="#4649FF"/>
<path fill-rule="evenodd" clip-rule="evenodd" d="M34.3094 15.3846C34.8429 15.2417 35.3912 15.5584 35.5341 16.0919L36.6631 20.3069C36.806 20.8404 36.4894 21.3887 35.9559 21.5316C35.4224 21.6745 34.8741 21.3579 34.7312 20.8244L33.6022 16.6093C33.4593 16.0758 33.7759 15.5275 34.3094 15.3846Z" fill="#4649FF"/>
<path d="M31.4016 33.8779C32.5561 31.8769 35.4434 31.8769 36.5979 33.8779L42.1145 43.4384C43.268 45.4383 41.8246 47.9372 39.5158 47.9375H28.4836C26.1749 47.9372 24.7322 45.4383 25.886 43.4384L31.4016 33.8779ZM35.2991 34.6269C34.7217 33.6268 33.2777 33.6267 32.7004 34.6269L27.1848 44.1884C26.6083 45.1883 27.3295 46.4372 28.4836 46.4375H39.5158C40.67 46.4372 41.3912 45.1883 40.8147 44.1884L35.2991 34.6269Z" fill="#4649FF"/>
<path fill-rule="evenodd" clip-rule="evenodd" d="M33.9999 38.1875C34.3106 38.1875 34.5624 38.4394 34.5624 38.75V41.5625C34.5624 41.8732 34.3106 42.125 33.9999 42.125C33.6893 42.125 33.4374 41.8732 33.4374 41.5625V38.75C33.4374 38.4394 33.6893 38.1875 33.9999 38.1875ZM33.9999 44.375C34.3106 44.375 34.5624 44.1232 34.5624 43.8125C34.5624 43.5019 34.3106 43.25 33.9999 43.25C33.6893 43.25 33.4374 43.5019 33.4374 43.8125C33.4374 44.1232 33.6893 44.375 33.9999 44.375Z" fill="#4649FF"/>
<path d="M34.4628 43.8125C34.4628 43.5571 34.2554 43.3496 33.9999 43.3496C33.7445 43.3496 33.537 43.5571 33.537 43.8125C33.537 44.0679 33.7445 44.2754 33.9999 44.2754C34.2554 44.2754 34.4628 44.0679 34.4628 43.8125ZM34.4628 38.75C34.4628 38.4946 34.2554 38.2871 33.9999 38.2871C33.7445 38.2871 33.537 38.4946 33.537 38.75V41.5625C33.537 41.8179 33.7445 42.0254 33.9999 42.0254C34.2554 42.0254 34.4628 41.8179 34.4628 41.5625V38.75ZM34.662 43.8125C34.662 44.1784 34.3658 44.4746 33.9999 44.4746C33.634 44.4746 33.3378 44.1784 33.3378 43.8125C33.3378 43.4466 33.634 43.1504 33.9999 43.1504C34.3658 43.1504 34.662 43.4466 34.662 43.8125ZM34.662 41.5625C34.662 41.9284 34.3658 42.2246 33.9999 42.2246C33.634 42.2246 33.3378 41.9284 33.3378 41.5625V38.75C33.3378 38.3841 33.634 38.0879 33.9999 38.0879C34.3658 38.0879 34.662 38.3841 34.662 38.75V41.5625Z" fill="#4649FF"/>
</svg>
